<svg width="72" height="25" viewBox="0 0 72 25" fill="none" xmlns="http://www.w3.org/2000/svg">
<path d="M70.7051 24.5H65.3203L59.9541 12.792L59.5 11.7998L59.0459 12.792L53.6797 24.5H48.7803L59.5088 1.17578L70.7051 24.5ZM45.5 20.5V24.5H41.5V20.5H45.5ZM40.5 20.5V24.5H36.5V20.5H40.5ZM35.5 20.5V24.5H31.5V20.5H35.5ZM30.5 20.5V24.5H26.5V20.5H30.5ZM19.5 20.5V24.5H15.5V20.5H19.5ZM14.5 20.5V24.5H10.5V20.5H14.5ZM9.5 20.5V24.5H5.5V20.5H9.5ZM4.5 20.5V24.5H0.5V20.5H4.5ZM30.5 15.5V19.5H26.5V15.5H30.5ZM4.5 15.5V19.5H0.5V15.5H4.5ZM40.5 10.5V14.5H36.5V10.5H40.5ZM35.5 10.5V14.5H31.5V10.5H35.5ZM30.5 10.5V14.5H26.5V10.5H30.5ZM14.5 10.5V14.5H10.5V10.5H14.5ZM9.5 10.5V14.5H5.5V10.5H9.5ZM4.5 10.5V14.5H0.5V10.5H4.5ZM30.5 5.5V9.5H26.5V5.5H30.5ZM4.5 5.5V9.5H0.5V5.5H4.5ZM45.5 0.5V4.5H41.5V0.5H45.5ZM40.5 0.5V4.5H36.5V0.5H40.5ZM35.5 0.5V4.5H31.5V0.5H35.5ZM30.5 0.5V4.5H26.5V0.5H30.5ZM19.5 0.5V4.5H15.5V0.5H19.5ZM14.5 0.5V4.5H10.5V0.5H14.5ZM9.5 0.5V4.5H5.5V0.5H9.5ZM4.5 0.5V4.5H0.5V0.5H4.5Z" fill="#151515" stroke="black"/>
</svg>
